<svg width="215" height="82" viewBox="0 0 215 82" fill="none" xmlns="http://www.w3.org/2000/svg">
<path d="M196.617 81.7577C192.697 81.7577 189.815 80.5881 187.97 78.249C186.162 75.9099 185.489 72.5497 185.949 68.1685L189.754 31.9679H180.458L181.348 23.5025H190.644L192.623 4.67824L202.858 0L200.388 23.5025H214.5L213.61 31.9679H199.498L196.033 64.9383C195.748 67.6487 196.006 69.6351 196.807 70.8975C197.648 72.1227 199.096 72.7354 201.149 72.7354C203.763 72.7354 206.705 71.7329 209.978 69.7279L207.862 79.1958C206.089 80.0869 204.266 80.7366 202.394 81.145C200.559 81.5535 198.633 81.7577 196.617 81.7577Z" fill="white"/>
<path d="M93.4691 82C85.9782 82 80.3412 79.4607 76.5582 74.3822C72.7789 69.2682 71.3497 62.3252 72.2707 53.5533C72.8859 47.6935 74.3982 42.6327 76.8076 38.371C79.2169 34.1093 82.3442 30.8243 86.1893 28.5159C90.0739 26.172 94.4953 25 99.4536 25C104.448 25 108.625 26.1542 111.985 28.4626C115.385 30.7355 117.824 34.0028 119.303 38.2645C120.818 42.5262 121.267 47.5869 120.652 53.4467C120.037 59.3065 118.523 64.3851 116.11 68.6822C113.7 72.9439 110.555 76.229 106.674 78.5374C102.829 80.8458 98.4274 82 93.4691 82ZM94.3752 73.3701C98.9768 73.3701 102.764 71.6121 105.737 68.0963C108.75 64.5449 110.582 59.6617 111.235 53.4467C111.891 47.1963 111.084 42.3131 108.813 38.7972C106.579 35.2813 103.16 33.5234 98.5588 33.5234C93.9215 33.5234 90.1163 35.2813 87.1432 38.7972C84.1737 42.2776 82.3553 47.1963 81.6879 53.5533C81.0354 59.7682 81.8266 64.6336 84.0614 68.1495C86.3 71.6299 89.7379 73.3701 94.3752 73.3701Z" fill="white"/>
<path d="M143.587 82C137.665 82 133.182 80.3664 130.136 77.0991C127.09 73.8318 125.866 69.357 126.462 63.6748C126.846 60.0168 128.018 56.8383 129.978 54.1393C131.938 51.4402 134.529 49.3626 137.749 47.9065C140.973 46.415 144.655 45.6692 148.792 45.6692C151.468 45.6692 153.933 45.971 156.188 46.5748C158.483 47.143 160.603 48.0131 162.549 49.185L162.952 45.3495C163.395 41.1234 162.757 38.0336 161.036 36.0804C159.318 34.0916 156.426 33.0972 152.36 33.0972C149.756 33.0972 146.994 33.5766 144.076 34.5355C141.193 35.4944 138.449 36.8262 135.844 38.5308L133.985 30.7533C136.922 28.9421 140.191 27.5393 143.791 26.5449C147.43 25.515 150.962 25 154.387 25C160.879 25 165.575 26.6514 168.474 29.9542C171.377 33.2215 172.488 38.1047 171.805 44.6037L168.013 80.7215H159.238L159.764 75.714C157.411 77.7383 154.839 79.3009 152.048 80.4019C149.261 81.4673 146.441 82 143.587 82ZM145.828 73.9028C148.361 73.9028 150.923 73.2813 153.515 72.0383C156.142 70.7953 158.539 69.0374 160.703 66.7645L161.688 57.3888C159.988 56.2523 158.012 55.3645 155.761 54.7252C153.509 54.086 151.331 53.7664 149.226 53.7664C145.231 53.7664 141.979 54.672 139.47 56.4832C136.965 58.2589 135.551 60.6916 135.226 63.7813C134.898 66.9065 135.673 69.3748 137.552 71.186C139.431 72.9972 142.19 73.9028 145.828 73.9028Z" fill="white"/>
<path fill-rule="evenodd" clip-rule="evenodd" d="M4.718 36.0818L0 80.9705H9.744L13.502 45.2155H32.6261L39.214 36.0818H4.718ZM5.31674 30.3852L15.7264 24.052L16.979 12.1337H48.7591L55.347 3H8.19503L5.31674 30.3852Z" fill="white"/>
<path d="M48 80.9706L54.4902 19.2209L66.3802 3L58.1852 80.9706H48Z" fill="white"/>
</svg>
