<svg width="24" height="30" viewBox="0 0 24 30" fill="none" xmlns="http://www.w3.org/2000/svg">
<path d="M4.05897 21.5904V23.4373C4.05897 24.4779 4.89332 25.3123 5.93403 25.3123H10.1248V14.4276L8.07154 12.3744C7.34028 11.6431 7.34028 10.4618 8.07154 9.72121C8.80286 8.99001 9.99348 8.99001 10.7248 9.72121L11.9998 10.9962L13.2748 9.72121C14.0061 8.99001 15.1967 8.99001 15.928 9.72121C16.6593 10.4618 16.6593 11.6431 15.928 12.3744L13.8749 14.4276V25.3123H18.0656C19.1063 25.3123 19.9407 24.4779 19.9407 23.4373V21.8435C19.9407 20.0903 20.4376 18.384 21.3751 16.9027C22.472 15.1495 23.0533 13.1245 23.0533 11.0525C23.0533 7.76179 21.6001 4.66792 19.0687 2.55848C16.5468 0.44904 13.2092 -0.4135 9.92785 0.18653C5.65272 0.97402 2.15571 4.3398 1.21821 8.55867C0.590101 11.4462 1.06825 14.3807 2.58698 16.8371C3.56202 18.4121 4.05897 20.0059 4.05897 21.5904Z" fill="white"/>
<path d="M7.99653 26.2499C6.96528 26.2499 6.12147 27.0937 6.12147 28.125C6.12147 29.1562 6.96528 30 7.99653 30H16.0031C17.0343 30 17.8781 29.1562 17.8781 28.125C17.8781 27.0937 17.0343 26.2499 16.0031 26.2499H7.99653Z" fill="white"/>
</svg>
