<svg width="30" height="28" viewBox="0 0 30 28" fill="none" xmlns="http://www.w3.org/2000/svg">
<path d="M28.125 2.77808H26.25V6.58429C26.25 7.62494 25.4062 8.45929 24.375 8.45929C23.3438 8.45929 22.5 7.62494 22.5 6.58429V6.52808V2.7218C22.5 1.68121 21.6562 0.846802 20.625 0.846802C19.5938 0.846802 18.75 1.68121 18.75 2.7218V6.52807V6.58428C18.75 7.62493 17.9062 8.45928 16.875 8.45928C15.8438 8.45928 15 7.62494 15 6.58429V6.52808V2.7218C15 1.68121 14.1562 0.846802 13.125 0.846802C12.0938 0.846802 11.25 1.68121 11.25 2.7218V6.52807V6.58428C11.25 7.62493 10.4062 8.45928 9.375 8.45928C8.34375 8.45928 7.5 7.62494 7.5 6.58429V6.52808V2.7218C7.5 1.68121 6.65625 0.846802 5.625 0.846802C4.59375 0.846802 3.75 1.68121 3.75 2.7218V2.77807H1.875C0.84375 2.77808 0 3.62183 0 4.65308V25.2781C0 26.3187 0.84375 27.1531 1.875 27.1531H28.125C29.1562 27.1531 30 26.3187 30 25.2781V4.65308C30 3.62183 29.1562 2.77808 28.125 2.77808ZM7.6781 21.6593C6.64691 21.6593 5.8031 20.825 5.8031 19.7843C5.8031 18.7531 6.64691 17.9093 7.6781 17.9093C8.71875 17.9093 9.5531 18.7531 9.5531 19.7843C9.5531 20.825 8.71875 21.6593 7.6781 21.6593ZM7.6781 15.9406C6.64691 15.9406 5.8031 15.0968 5.8031 14.0656C5.8031 13.0249 6.64691 12.1906 7.6781 12.1906C8.71875 12.1906 9.5531 13.0249 9.5531 14.0656C9.5531 15.0968 8.71875 15.9406 7.6781 15.9406ZM15 21.6593C13.9688 21.6593 13.125 20.825 13.125 19.7843C13.125 18.7531 13.9688 17.9093 15 17.9093C16.0312 17.9093 16.875 18.7531 16.875 19.7843C16.875 20.825 16.0312 21.6593 15 21.6593ZM15 15.9406C13.9688 15.9406 13.125 15.0968 13.125 14.0656C13.125 13.0249 13.9688 12.1906 15 12.1906C16.0312 12.1906 16.875 13.0249 16.875 14.0656C16.875 15.0968 16.0312 15.9406 15 15.9406ZM22.3219 21.6593C21.2812 21.6593 20.4469 20.825 20.4469 19.7843C20.4469 18.7531 21.2812 17.9093 22.3219 17.9093C23.3531 17.9093 24.1969 18.7531 24.1969 19.7843C24.1969 20.825 23.3531 21.6593 22.3219 21.6593ZM22.3219 15.9406C21.2812 15.9406 20.4469 15.0968 20.4469 14.0656C20.4469 13.0249 21.2812 12.1906 22.3219 12.1906C23.3531 12.1906 24.1969 13.0249 24.1969 14.0656C24.1969 15.0968 23.3531 15.9406 22.3219 15.9406Z" fill="white"/>
</svg>
