<svg width="30" height="30" viewBox="0 0 30 30" fill="none" xmlns="http://www.w3.org/2000/svg">
<path d="M1.875 24.6938H7.58435C8.03438 27.1781 10.2094 29.0625 12.8156 29.0625C15.4219 29.0625 17.5968 27.1781 18.0469 24.6938H23.7562C24.2719 24.6938 24.6937 24.2719 24.6937 23.7563V18.0469C27.1781 17.5969 29.0625 15.4219 29.0625 12.8156C29.0625 10.2094 27.1781 8.03438 24.6937 7.58439V1.875C24.6937 1.35938 24.2719 0.9375 23.7562 0.9375H17.1937C16.6687 0.9375 16.2562 1.35938 16.2562 1.875C16.2562 3.77815 14.7094 5.31561 12.8156 5.31561C10.9218 5.31561 9.375 3.77815 9.375 1.875C9.375 1.35938 8.9625 0.9375 8.4375 0.9375H1.875C1.35938 0.9375 0.9375 1.35938 0.9375 1.875V8.4375C0.9375 8.9625 1.35938 9.375 1.875 9.375C3.7781 9.375 5.31561 10.9219 5.31561 12.8156C5.31561 14.7094 3.7781 16.2563 1.875 16.2563C1.35938 16.2563 0.9375 16.6688 0.9375 17.1938V23.7563C0.9375 24.2719 1.35938 24.6938 1.875 24.6938Z" fill="white"/>
</svg>
