<svg width="28" height="30" viewBox="0 0 28 30" fill="none" xmlns="http://www.w3.org/2000/svg">
<path d="M4.93348 22.9968L12.9772 28.7437C13.2866 28.9594 13.6428 29.0625 13.9991 29.0625C14.3553 29.0625 14.7116 28.9594 15.021 28.7437L23.0647 22.9968C26.2241 20.7375 27.8835 16.95 27.4053 13.0968L26.2897 4.22813C26.2241 3.70313 25.9241 3.23438 25.4647 2.95309C25.0147 2.67186 24.4616 2.61561 23.9553 2.79373C18.3397 4.81876 15.4428 1.66872 15.3397 1.54684C15.0022 1.16249 14.5147 0.946884 14.0085 0.9375C13.5116 0.946884 13.0147 1.16249 12.6772 1.53751C12.5554 1.66872 9.65846 4.80937 4.04284 2.79373C3.53661 2.61561 2.98346 2.67186 2.53347 2.95309C2.07411 3.23438 1.7741 3.70313 1.70847 4.22813L0.592848 13.0968C0.114713 16.95 1.77411 20.7375 4.93348 22.9968Z" fill="white"/>
</svg>
